<svg id="Capa_1" enable-background="new 0 0 512 512" height="512" viewBox="0 0 512 512" width="512" xmlns="http://www.w3.org/2000/svg"><g><path d="m353.707 179.606c-1.65 4.648-4.917 6.577-9.38 8.983-4.532 2.444-11.244 4.692-15.99 6.763v34.558c0 .653-.032 1.298-.049 1.946 18.873 2.007 36.572-11.814 36.572-28.711-.001-9.155-4.277-17.886-11.153-23.539z" fill="#ffb1a0"/><path d="m350.224 184.799c-1.609 1.429-3.592 2.547-5.897 3.79-4.532 2.444-11.244 4.692-15.991 6.763v34.558c0 .653-.032 1.298-.049 1.946 7.93.843 15.647-1.115 21.937-4.916z" fill="#ffa68e"/><path d="m183.664 195.352c-4.747-2.07-11.458-4.319-15.99-6.763-4.228-2.28-7.38-3.921-9.104-8.255-6.789 5.517-11.428 13.894-11.428 22.909 0 16.852 17.679 30.676 36.57 28.602-.017-.645-.047-1.288-.047-1.935v-34.558z" fill="#ffb1a0"/><path d="m183.664 227.047c-8.731-5.219-14.726-13.995-14.726-23.803 0-4.444 1.132-8.731 3.088-12.599-1.562-.67-3.052-1.353-4.353-2.055-4.227-2.28-7.38-3.921-9.103-8.255-6.789 5.517-11.428 13.894-11.428 22.909 0 16.852 17.679 30.676 36.57 28.602-.017-.645-.047-1.288-.047-1.935v-2.864z" fill="#ffa68e"/><path d="m409.746 364.729c-3.06-1.557-4.35-1.976-14.385-5.895v.034c-12.545-4.859-34.152-13.227-53.458-20.703l-78.407 131.711c-3.294 5.836-11.699 5.837-14.994.001l-78.529-131.873-63.753 24.899c-17.194 7.076-40.217 29.341-40.217 62.38v73.214c0 7.458 6.046 13.504 13.504 13.504h352.988c7.458 0 13.504-6.046 13.504-13.504v-73.214c-.002-30.556-19.691-51.922-36.253-60.554z" fill="#6e60b8"/><path d="m279.064 449.504 56.336-99.816-34.656 32.596c-4.019 4.02-10.597 4.02-14.616 0l-13.246-11.184c-2.088-2.088-3.081-4.866-3-7.617h-27.677c.081 2.751-.912 5.529-3 7.617l-13.245 10.154c-4.019 4.02-10.597 4.02-14.616 0l-34.926-31.835 56.509 100.085z" fill="#b1dbfc"/><path d="m274.942 358.544 30.413-34.534c-1.82-.705-3.034-1.175-3.484-1.349-2.85-1.102-4.744-3.844-4.752-6.916l-.02-27.532c-26.14 17.105-59.216 14.794-82.262-.11v27.597c0 3.063-1.473 4.868-3.168 6.019l-5.198 2.03 30.674 34.795c1.932 1.932 2.925 4.454 3 7h31.797c.076-2.546 1.069-5.068 3-7z" fill="#ffb1a0"/><path d="m256 300.165c-14.834-.084-29.323-4.405-41.163-12.062v27.597c0 3.063-1.473 4.868-3.168 6.019l-5.198 2.03 30.674 34.795c1.932 1.932 2.925 4.454 3 7h15.855z" fill="#ffa68e"/><path d="m268.477 391.47h-25.136l-10.704 57.518 15.865 28.1c3.295 5.836 11.7 5.835 14.994-.001l15.729-27.868z" fill="#ff7f87"/><path d="m256.333 456.747c-2.829-5.012-3.803-10.86-2.75-16.518l9.074-48.759h-19.316l-10.704 57.518 15.865 28.099c3.295 5.836 11.7 5.835 14.994-.001l2.16-3.827z" fill="#ff656f"/><path d="m273.912 371.1c-2.088-2.088-4.111-4.866-4.03-7.617h-27.677c.081 2.751-1.942 5.529-4.03 7.617l-8.633 8.632 13.102 12.124c.447.414 1.034.644 1.644.644h23.239c.61 0 1.197-.23 1.645-.645l13.237-12.258z" fill="#ff656f"/><path d="m254.425 385.079c-3.095-2.864-3.19-7.727-.208-10.709l3.664-3.664c1.998-1.997 3.922-4.592 4.209-7.223h-19.884c.081 2.751-1.942 5.529-4.03 7.617l-8.633 8.632 13.102 12.124c.447.414 1.034.644 1.644.644h18.156z" fill="#ff4756"/><path d="m206.471 323.749-36.498 14.254 6.445 11.415 34.926 34.926c4.02 4.02 10.597 4.02 14.616 0l13.245-13.245c4.02-4.019 4.02-10.597 0-14.617z" fill="#dfebfa"/><path d="m305.356 324.01-32.474 32.473c-4.02 4.02-4.02 10.597 0 14.617l13.245 13.245c4.02 4.02 10.597 4.02 14.616 0l34.656-34.656 6.504-11.524c-15.806-6.122-30.068-11.646-36.547-14.155z" fill="#dfebfa"/><path d="m256 209.806c-11.089 0-21.945-.986-32.497-2.849v23.589c0 31.19 19.552 60.195 51.017 70.582 32.034-7.855 55.877-36.798 55.877-71.218v-35.588c-22.792 9.943-47.94 15.484-74.397 15.484z" fill="#ffcebe"/><g><path d="m224.457 229.91v-22.79c-14.967-2.562-29.327-6.898-42.853-12.798v35.588c0 38.328 30.031 73.335 75.458 73.335 7.201 0 14.156-1.061 20.735-3.004-32.793-9.237-53.34-38.638-53.34-70.331z" fill="#ffb1a0"/></g><path d="m388.703 512v-75.886c0-4.267-3.459-7.726-7.726-7.726s-7.726 3.459-7.726 7.726v75.886z" fill="#6353b2"/><path d="m138.75 512v-75.886c0-4.267-3.459-7.726-7.726-7.726s-7.726 3.459-7.726 7.726v75.886z" fill="#6353b2"/><path d="m266.093 141.112c-6.352 3.183-13.834 3.183-20.186 0l-88.826-44.505v59.929c1.126.958 2.323 1.843 3.654 2.561 28.357 15.291 60.788 23.994 95.264 23.994s66.907-8.703 95.264-23.994c1.331-.718 2.529-1.603 3.654-2.561v-59.93z" fill="#6e60b8"/><path d="m195.552 115.882-38.47-19.275v59.929c1.126.958 2.323 1.843 3.654 2.561 11.027 5.946 22.676 10.881 34.816 14.71z" fill="#6353b2"/><path d="m351.264 157.037c-28.357 15.291-60.787 23.993-95.264 23.993s-66.907-8.702-95.264-23.994c-1.332-.718-2.529-1.603-3.655-2.561v18.12c0 7.492 3.997 14.499 10.592 18.055 26.293 14.177 56.36 22.246 88.327 22.246s62.034-8.069 88.327-22.246c6.595-3.556 10.592-10.563 10.592-18.055v-18.12c-1.126.959-2.323 1.844-3.655 2.562z" fill="#9790cc"/><path d="m195.552 171.747c-12.139-3.829-23.789-8.764-34.816-14.71-1.332-.718-2.529-1.603-3.654-2.561v18.12c0 7.492 3.997 14.499 10.592 18.055 8.883 4.79 18.206 8.863 27.879 12.183v-31.087z" fill="#8479c2"/><path d="m104.203 410.314c0-25.254 14.049-45.082 24.085-56.03l-22.068 8.619c-17.194 7.076-40.217 29.341-40.217 62.38v73.214c0 7.458 6.046 13.504 13.504 13.504h24.697c-.001-35.851-.001-80.23-.001-101.687z" fill="#6353b2"/><path d="m393.944 66.445-127.851-64.058c-6.352-3.183-13.834-3.183-20.186 0l-127.851 64.058c-7.335 3.675-7.335 14.144 0 17.819l127.851 64.058c6.352 3.183 13.834 3.183 20.186 0l127.851-64.058c7.335-3.675 7.335-14.143 0-17.819z" fill="#9790cc"/><path d="m291.444 126.963-132.66-66.467c-4.681-2.346-6.471-7.356-5.394-11.754l-35.334 17.704c-7.335 3.675-7.335 14.144 0 17.819l127.851 64.058c6.352 3.183 13.834 3.183 20.186 0l37.889-18.984c-4.265.378-8.61-.407-12.538-2.376z" fill="#8479c2"/><g><path d="m399.445 172.557c-4.267 0-7.726-3.459-7.726-7.726v-81.75h-122.491c-4.267 0-7.726-3.459-7.726-7.726s3.459-7.726 7.726-7.726h130.217c4.267 0 7.726 3.459 7.726 7.726v89.475c.001 4.267-3.459 7.727-7.726 7.727z" fill="#6353b2"/></g><g><g><path d="m421.968 217.311-9.856-39.663c-2.996 3.71-7.526 6.131-12.666 6.131s-9.67-2.421-12.666-6.13l-9.856 39.663c-1.996 7.612 3.747 15.053 11.615 15.053h21.814c7.868-.001 13.61-7.442 11.615-15.054z" fill="#fec458"/></g></g><g><path d="m395.501 218.342 8.78-35.332c-1.527.485-3.144.77-4.836.77-5.14 0-9.67-2.421-12.666-6.13l-9.856 39.663c-1.995 7.612 3.747 15.053 11.615 15.053h13.741c-5.183-2.288-8.332-8.096-6.778-14.024z" fill="#f9ab49"/></g><circle cx="256" cy="75.355" fill="#8479c2" r="16.841"/><circle cx="399.445" cy="169.493" fill="#ffe181" r="16.347"/><path d="m397.693 169.492c0-6.402 3.689-11.929 9.049-14.612-2.199-1.1-4.671-1.735-7.297-1.735-9.028 0-16.347 7.318-16.347 16.346s7.319 16.346 16.347 16.346c2.626 0 5.098-.634 7.297-1.734-5.36-2.681-9.049-8.209-9.049-14.611z" fill="#fec458"/></g></svg>